<?xml version="1.0" encoding="UTF-8" standalone="no"?>
<!DOCTYPE svg PUBLIC "-//W3C//DTD SVG 1.1//EN" "http://www.w3.org/Graphics/SVG/1.1/DTD/svg11.dtd">
<svg version="1.1" xmlns="http://www.w3.org/2000/svg" xmlns:xlink="http://www.w3.org/1999/xlink" preserveAspectRatio="xMidYMid meet" viewBox="0 0 640 640" width="640" height="640"><defs><path d="M0 0L640 0L640 640L0 640L0 0Z" id="c1cXC7mGqP"></path><path d="M420 380L308.63 200L200 380L420 380Z" id="bXoP7MNQV"></path><path d="M200 380L620 380L420 380" id="atwRuPoL7"></path><path d="M52.63 622L308.63 200" id="a1okdkrXw"></path><path d="M196.63 20L420 380" id="e2a7yh27tR"></path><path d="M220 380C220 391.04 211.04 400 200 400C188.96 400 180 391.04 180 380C180 368.96 188.96 360 200 360C211.04 360 220 368.96 220 380Z" id="j4nhUoiACK"></path><path d="M329 200C329 211.04 320.04 220 309 220C297.96 220 289 211.04 289 200C289 188.96 297.96 180 309 180C320.04 180 329 188.96 329 200Z" id="aDI65fxV"></path><path d="M440 380C440 391.04 431.04 400 420 400C408.96 400 400 391.04 400 380C400 368.96 408.96 360 420 360C431.04 360 440 368.96 440 380Z" id="c331gZ3BSm"></path><path d="M30 390C30 390 27.76 390 25 390C22.24 390 20 390 20 390C20 390 22.24 390 25 390C27.76 390 29 390 30 390Z" id="j3rPrb6BI"></path><path d="M217 20C217 31.04 208.04 40 197 40C185.96 40 177 31.04 177 20C177 8.96 185.96 0 197 0C208.04 0 217 8.96 217 20Z" id="fToNE9D6x"></path><path d="M20 390C20 390 18.76 390 17.23 390C15.7 390 14.46 390 14.46 390C14.46 390 15.7 390 17.23 390C18.76 390 19.45 390 20 390Z" id="atRJczQLI"></path><path d="M640 380C640 391.04 631.04 400 620 400C608.96 400 600 391.04 600 380C600 368.96 608.96 360 620 360C631.04 360 640 368.96 640 380Z" id="dnhXRQ78Z"></path><path d="M70 620C70 631.04 61.04 640 50 640C38.96 640 30 631.04 30 620C30 608.96 38.96 600 50 600C61.04 600 70 608.96 70 620Z" id="a266RSKutq"></path></defs><g><g><g><use xlink:href="#c1cXC7mGqP" opacity="1" fill="#ffffff" fill-opacity="1"></use></g><g><g><use xlink:href="#bXoP7MNQV" opacity="1" fill-opacity="0" stroke="#000000" stroke-width="1" stroke-opacity="1"></use></g></g><g><g><use xlink:href="#atwRuPoL7" opacity="1" fill-opacity="0" stroke="#000000" stroke-width="1" stroke-opacity="1"></use></g></g><g><g><use xlink:href="#a1okdkrXw" opacity="1" fill-opacity="0" stroke="#000000" stroke-width="1" stroke-opacity="1"></use></g></g><g><g><use xlink:href="#e2a7yh27tR" opacity="1" fill-opacity="0" stroke="#000000" stroke-width="1" stroke-opacity="1"></use></g></g><g><use xlink:href="#j4nhUoiACK" opacity="1" fill="#556ea9" fill-opacity="1"></use></g><g><use xlink:href="#aDI65fxV" opacity="1" fill="#3d9d8d" fill-opacity="1"></use></g><g><use xlink:href="#c331gZ3BSm" opacity="1" fill="#be5045" fill-opacity="1"></use></g><g><use xlink:href="#j3rPrb6BI" opacity="1" fill="#c1efe4" fill-opacity="1"></use></g><g><use xlink:href="#fToNE9D6x" opacity="1" fill="#16bf2e" fill-opacity="1"></use></g><g><use xlink:href="#atRJczQLI" opacity="1" fill="#760406" fill-opacity="1"></use></g><g><use xlink:href="#dnhXRQ78Z" opacity="1" fill="#c51652" fill-opacity="1"></use></g><g><use xlink:href="#a266RSKutq" opacity="1" fill="#8f63fd" fill-opacity="1"></use></g></g></g></svg>